<?xml version="1.0" encoding="UTF-8"?>
<svg
  xmlns="http://www.w3.org/2000/svg"
  version="1.2"
  baseProfile="tiny-ps"
  viewBox="0 0 256 256"
>
  <title>Silver Wolf</title>
  <path fill="#000" d="M0 0h256v256H0z" />
  <path fill-rule="evenodd" clip-rule="evenodd"
    d="M164.792 49.077c-.528 9.463.477 15.753 11.999 19.886 8.933 4.677 8.317 16.139 14.914 21.798 10.394 8.914 24.406 13.049 36.289 19.741.291 8.229-10.104 12.444-13.358 19.427-5.89 10.819-20.096 8.967-30.642 8.095-7.344-.764-24.791-.847-25.82 3.218 6.074-1.198 16.494-4.784 13.054 3.487-4.349 10.457-5.033 24.786-2.088 36.155-4.15-2.371-11.304-18.193-8.826-5.612 2.065 10.485 2.886 18.586-.627 28.828-2.238-3.605-6.863-17.479-8.739-13.975 1.308 10.093-7.266 38.552-7.266 38.552s-11.073-21.986-28.729-27.901-43.447.508-66.65-8.169c-23.203-8.678-23.448-18.505-15.856-27.91 6.874-8.515 9.365-11.314 7.673-12.789-1.148-1-4.684 4.349-12.034 5.762 0 0 5.86-10.196 9.008-15.17 4.638-7.328 14.215-16.819 14.547-21.6.176-2.538-14.07 8.35-14.07 8.35s3.396-7.151 5.299-10.138c10.212-16.026 23.96-22.14 34.82-40.9 5.315-9.184 2.048 6.522 3.898 6.567 1.337.033 2.274-9.356 3.146-14.88 0 0 2.23-21.274 15.146-36.335 8.105-9.45 15.349 12.953 19.607 21.02 3.427 6.489 6.631 10.445 1.738.346 4.857-7.775 28.568-24.791 41.701-27.83 5.334-1.234 2.585 9.102 1.866 21.977m-14.975 38.02c2.89 4.407 16.68 10.794 21.178 6.321-5.619-7.535-12.719-8.52-21.178-6.321"
    fill="#fff" />
</svg>